<?xml version="1.0" ?><!DOCTYPE svg  PUBLIC '-//W3C//DTD SVG 1.1//EN'  'http://www.w3.org/Graphics/SVG/1.1/DTD/svg11.dtd'><svg enable-background="new 0 0 24 24" height="24px" id="Layer_1" version="1.1" viewBox="0 0 24 24" width="24px" xml:space="preserve" xmlns="http://www.w3.org/2000/svg" xmlns:xlink="http://www.w3.org/1999/xlink"><g><path d="M6.24,16.32H2.05c-0.17,0-0.329-0.092-0.416-0.239c-0.085-0.147-0.086-0.331,0-0.479l4.062-7.106l-1.979-3.96   C3.641,4.385,3.65,4.209,3.738,4.068c0.087-0.14,0.242-0.227,0.408-0.227h4.189c0.18,0,0.346,0.101,0.428,0.263l2.096,4.189   c0.071,0.142,0.066,0.313-0.013,0.453l-4.188,7.331C6.572,16.229,6.413,16.32,6.24,16.32z M2.878,15.36h3.083l3.923-6.864   L8.038,4.8H4.923L6.67,8.295C6.742,8.438,6.737,8.608,6.658,8.75L2.878,15.36z"/><path d="M19.856,24h-4.188c-0.175,0-0.336-0.096-0.422-0.246l-5.236-9.426c-0.08-0.144-0.081-0.316-0.003-0.461l7.331-13.614   C17.421,0.097,17.584,0,17.76,0h4.189c0.169,0,0.326,0.089,0.412,0.232c0.086,0.144,0.092,0.326,0.011,0.473l-7.207,13.382   l5.109,9.196c0.082,0.148,0.081,0.329-0.006,0.477C20.183,23.91,20.025,24,19.856,24z M15.949,23.04h3.09l-4.841-8.712   c-0.079-0.142-0.08-0.316-0.003-0.461l6.951-12.904h-3.101l-7.068,13.13L15.949,23.04z"/></g></svg>